<svg width="20" height="21" viewBox="0 0 20 21" fill="none" xmlns="http://www.w3.org/2000/svg">
<g clip-path="url(#clip0_272_3564)">
<path d="M18.7956 11.885L17.2122 6.18834C16.7481 4.51945 15.7395 3.05358 14.3467 2.02373C12.9539 0.993884 11.2567 0.459162 9.52513 0.504562C7.79351 0.549962 6.12675 1.17288 4.78979 2.2743C3.45284 3.37571 2.52241 4.89243 2.14641 6.58334L0.920574 12.0958C0.78517 12.705 0.788301 13.3367 0.929735 13.9444C1.07117 14.5522 1.34729 15.1204 1.73773 15.6071C2.12816 16.0939 2.62292 16.4867 3.1855 16.7566C3.74808 17.0266 4.36409 17.1667 4.98807 17.1667H5.91641C6.10767 18.1086 6.61868 18.9554 7.36286 19.5637C8.10704 20.1719 9.03861 20.5042 9.99974 20.5042C10.9609 20.5042 11.8924 20.1719 12.6366 19.5637C13.3808 18.9554 13.8918 18.1086 14.0831 17.1667H14.7814C15.4237 17.1667 16.0574 17.0183 16.6329 16.7329C17.2083 16.4475 17.71 16.0329 18.0988 15.5216C18.4875 15.0102 18.7527 14.4159 18.8737 13.785C18.9948 13.1542 18.9675 12.5039 18.7956 11.885ZM9.99974 18.8333C9.48452 18.8312 8.98255 18.6699 8.56249 18.3716C8.14243 18.0733 7.82481 17.6524 7.65307 17.1667H12.3464C12.1747 17.6524 11.857 18.0733 11.437 18.3716C11.0169 18.6699 10.515 18.8312 9.99974 18.8333ZM16.7714 14.5125C16.5392 14.8206 16.2383 15.0702 15.8927 15.2416C15.5472 15.4131 15.1663 15.5015 14.7806 15.5H4.98807C4.61373 15.4999 4.24417 15.4158 3.90669 15.2538C3.56921 15.0918 3.27241 14.8561 3.03821 14.5641C2.80401 14.2721 2.63837 13.9312 2.55354 13.5665C2.46871 13.2019 2.46684 12.8229 2.54807 12.4575L3.77307 6.94417C4.06837 5.61601 4.79916 4.42468 5.84929 3.55955C6.89941 2.69442 8.20859 2.20515 9.56872 2.16952C10.9288 2.13389 12.2618 2.55394 13.3558 3.3629C14.4498 4.17186 15.242 5.3233 15.6064 6.63417L17.1897 12.3308C17.2944 12.702 17.311 13.0924 17.2384 13.4711C17.1658 13.8498 17.0059 14.2064 16.7714 14.5125Z" fill="#202020"/>
</g>
<defs>
<clipPath id="clip0_272_3564">
<rect width="20" height="20" fill="white" transform="translate(0 0.5)"/>
</clipPath>
</defs>
</svg>
