<svg width="15" height="18" viewBox="0 0 15 18" fill="none" xmlns="http://www.w3.org/2000/svg">
<path d="M9.65909 6.50499L9.38636 13.9898M5.61364 13.9898L5.34091 6.50499M13.1945 3.83587C13.4639 3.87882 13.7325 3.92477 14 3.97369M13.1945 3.83587L12.3532 15.3808C12.2821 16.3557 11.512 17.1085 10.5857 17.1085H4.41433C3.48801 17.1085 2.71787 16.3557 2.64682 15.3808L1.80549 3.83587M13.1945 3.83587C12.2913 3.69189 11.3775 3.58162 10.4545 3.50633M1 3.97369C1.26754 3.92477 1.53605 3.87882 1.80549 3.83587M1.80549 3.83587C2.70873 3.69189 3.62245 3.58162 4.54545 3.50633M10.4545 3.50633V2.74443C10.4545 1.76361 9.73706 0.944775 8.80834 0.913416C8.37393 0.898747 7.93778 0.891357 7.5 0.891357C7.06222 0.891357 6.62607 0.898747 6.19166 0.913416C5.26294 0.944775 4.54545 1.76361 4.54545 2.74443V3.50633M10.4545 3.50633C9.47959 3.42681 8.49428 3.38631 7.5 3.38631C6.50572 3.38631 5.52041 3.42681 4.54545 3.50633" stroke="#525252" stroke-width="1.5" stroke-linecap="round" stroke-linejoin="round"/>
</svg>
