<svg width="20" height="21" viewBox="0 0 20 21" fill="none" xmlns="http://www.w3.org/2000/svg">
  <g clip-path="url(#clip0_272_3560)">
    <path d="M18.9275 3.8975C18.6931 3.6162 18.3996 3.38996 18.0679 3.23485C17.7363 3.07973 17.3745 2.99955 17.0083 3H3.535L3.5 2.7075C3.42837 2.09951 3.13615 1.53894 2.67874 1.13206C2.22133 0.725186 1.63052 0.500285 1.01833 0.5L0.833333 0.5C0.61232 0.5 0.400358 0.587797 0.244078 0.744078C0.0877974 0.900358 0 1.11232 0 1.33333C0 1.55435 0.0877974 1.76631 0.244078 1.92259C0.400358 2.07887 0.61232 2.16667 0.833333 2.16667H1.01833C1.22244 2.16669 1.41945 2.24163 1.57198 2.37726C1.72451 2.5129 1.82195 2.69979 1.84583 2.9025L2.9925 12.6525C3.11154 13.6665 3.59873 14.6015 4.36159 15.28C5.12445 15.9585 6.10988 16.3334 7.13083 16.3333H15.8333C16.0543 16.3333 16.2663 16.2455 16.4226 16.0893C16.5789 15.933 16.6667 15.721 16.6667 15.5C16.6667 15.279 16.5789 15.067 16.4226 14.9107C16.2663 14.7545 16.0543 14.6667 15.8333 14.6667H7.13083C6.61505 14.6652 6.11233 14.5043 5.69161 14.2059C5.27089 13.9075 4.95276 13.4863 4.78083 13H14.7142C15.6911 13.0001 16.6369 12.6569 17.3865 12.0304C18.1361 11.4039 18.6417 10.5339 18.815 9.5725L19.4692 5.94417C19.5345 5.58417 19.5198 5.21422 19.4262 4.86053C19.3326 4.50684 19.1623 4.17806 18.9275 3.8975Z" fill="white"/>
    <path d="M5.83366 20.5C6.75413 20.5 7.50033 19.7538 7.50033 18.8334C7.50033 17.9129 6.75413 17.1667 5.83366 17.1667C4.91318 17.1667 4.16699 17.9129 4.16699 18.8334C4.16699 19.7538 4.91318 20.5 5.83366 20.5Z" fill="white"/>
    <path d="M14.1667 20.5C15.0871 20.5 15.8333 19.7538 15.8333 18.8334C15.8333 17.9129 15.0871 17.1667 14.1667 17.1667C13.2462 17.1667 12.5 17.9129 12.5 18.8334C12.5 19.7538 13.2462 20.5 14.1667 20.5Z" fill="white"/>
  </g>
  <defs>
    <clipPath id="clip0_272_3560">
      <rect width="20" height="20" fill="white" transform="translate(0 0.5)"/>
    </clipPath>
  </defs>
</svg>
